<svg xmlns="http://www.w3.org/2000/svg" width="366" height="447" fill="none" viewBox="0 0 366 447"><ellipse cx="177.233" cy="219.755" fill="#fff" rx="29.975" ry="37.767" transform="rotate(-31 177.233 219.755)"/><ellipse cx="177.233" cy="219.755" fill="#fff" rx="25.013" ry="33.227" transform="rotate(-31 177.233 219.755)"/><ellipse cx="2.02" cy="3.174" fill="#fff" rx="2.02" ry="3.174" transform="matrix(.93196 -.36476 .36366 .93068 130.972 165.802)"/><ellipse cx="2.02" cy="3.174" fill="#fff" rx="2.02" ry="3.174" transform="matrix(-.76574 .6444 .64376 .76418 151.626 152.883)"/><path fill="#fff" fill-rule="evenodd" d="M137.606 152.855c-3.41 2.083-9.127 7.538-4.716 12.698 2.957 3.459 2.5 5.523 2.006 7.754-.428 1.929-.883 3.983.818 7.172 1.545 2.896 3.489 4.41 5.43 5.92 2.667 2.075 5.327 4.146 6.933 9.792 2.22 7.804 13.685 27.101 19.188 35.654l12.742-7.656v-.001l12.6-7.489c-4.883-8.921-16.068-28.135-21.863-33.814-4.083-4.001-4.009-7.25-3.935-10.489.057-2.507.115-5.008-1.756-7.847-2-3.035-4.513-3.613-6.932-4.17-2.769-.637-5.416-1.246-7.033-5.475-2.425-6.341-9.949-3.926-13.408-1.925l-.074-.124Z" clip-rule="evenodd"/><ellipse cx="4.882" cy="6.877" fill="#fff" rx="4.882" ry="6.877" transform="matrix(-.55845 .83018 .83 .55678 138.194 173.187)"/><ellipse cx="4.882" cy="6.877" fill="#fff" rx="4.882" ry="6.877" transform="matrix(-.99974 -.03453 -.03604 .999 166.74 162.627)"/><path fill="#fff" d="M184.032 201.834c-6.771 9.354-19.565 15.036-25.285 15.763l1.835 2.951c13.383-.87 22.311-10.917 25.266-15.786l-1.816-2.928Z"/><path fill="#fff" d="M185.818 204.654c-7.838 11.639-19.569 15.064-25.286 15.859l1.487 2.283c13.394-1.031 22.854-9.942 25.721-14.835l-1.922-3.307Z"/><ellipse cx=".906" cy="1.424" fill="#fff" opacity=".2" rx=".906" ry="1.424" transform="matrix(.9937 -.11697 .1156 .99274 150.417 154.461)"/><ellipse cx=".906" cy="1.424" fill="#fff" opacity=".2" rx=".906" ry="1.424" transform="matrix(.9937 -.11697 .1156 .99274 132.198 165.664)"/><path fill="#fff" d="M138.898 171c-5.524-8.389 1.908-14.756 1.936-14.629 9.659-2.724 13.329 5.156 13.688 6.432.987 3.512 7.632 3.185 7.998 7.238.366 4.053 4.293 10.614 5.777 15.937.91 3.262.37 4.972-.287 5.716.219-.127.134-.062-.076.081a1.394 1.394 0 0 1-.521.347c.195-.128.385-.254.521-.347a1.96 1.96 0 0 0 .076-.081c-.287.167-1.097.666-2.831 1.756-4.892 3.076-9.07-3.246-17.772-8.136-8.703-4.89-1.603-3.827-8.509-14.314Z"/><path fill="#fff" d="M163.3 190.29c-4.179 2.014-10.694-6.026-13.429-10.298 2.122-1.989 6.967-5.886 9.372-5.572 3.006.394 9.28 13.352 4.057 15.87Z"/><path fill="#fff" d="M163.444 188.695c2.575-2-1.915-7.555-4.481-10.083l-5.4 3.21c2.221 3.124 7.307 8.873 9.881 6.873Z"/><path fill="#fff" d="M161.844 186.703c.33-.751-4.083-6.265-6.331-8.929l-1.111.832c2.343 3.012 7.111 8.848 7.442 8.097Z"/><path fill="#fff" d="M146.268 177.605c-.707-7.295-4.15-9.525-5.782-9.729.9-7.982 7.616-7.63 10.862-6.456.149 7.458-.144 1.595 7.024 8.99 5.734 5.917 2.57 10.967.272 12.753-3.831 1.187-11.669 1.736-12.376-5.558Z"/><path fill="#fff" d="M160.42 173.084c-11.483-4.847-12.423 4.254-11.458 9.411 1.611 1.391 5.835 3.458 9.85.602 4.014-2.856 2.745-7.865 1.608-10.013Z"/><path fill="#fff" d="M152.682 176.215c-.507-.693-1.564-1.904-1.74-1.201-.176.703 1.086 1.093 1.74 1.201ZM154.082 175.386c-.485-.709-1.273-2.109-.551-2.04.721.069.668 1.389.551 2.04ZM139.074 144.753l4.303 5.958c-1.482 5.363-8.587 7.943-11.955 8.562l-4.294-6.136 11.946-8.384Z"/><path fill="#fff" d="M143.377 150.712c1.225 3.872.287 10.741-11.97 8.507l11.97-8.507Z"/><ellipse cx="7.304" cy="1.259" fill="#fff" rx="7.304" ry="1.259" transform="matrix(.8223 -.57051 .56974 .82081 126.393 152.071)"/><path fill="#fff" d="M133.269 151.249c.039-.005.071-.01.102-.01a.89.89 0 0 1 .665.226c.083.072.158.156.235.233l.204.204c.018.017.022.028.002.048-.044.043-.066.097-.049.159a.136.136 0 0 0 .103.102c.053.015.101-.002.144-.034.02-.016.027-.036.023-.064a1.557 1.557 0 0 0-.219-.606c-.095-.155-.217-.287-.333-.422-.066-.077-.13-.158-.198-.233a.586.586 0 0 1-.105-.156.404.404 0 0 1-.037-.19.325.325 0 0 1 .172.076c.045.039.086.086.124.13.041.05.076.104.113.154.098.133.195.268.298.398.173.215.386.374.642.471.034.014.059.005.083-.019a.16.16 0 0 0 .02-.214c-.046-.058-.139-.07-.206-.02-.024.017-.032.01-.045-.012-.068-.112-.139-.224-.209-.335-.077-.127-.162-.248-.201-.395a.912.912 0 0 1 .027-.556l.017-.046.023.029 1.264 1.599c.024.03.024.03-.005.054l-.328.266c-.019.015-.023.028-.011.051a.776.776 0 0 1 .06.546c-.009.04-.011.083-.017.124-.119-.022-.246-.002-.366-.045a.834.834 0 0 1-.27-.15c-.018-.014-.031-.013-.047 0l-.334.271c-.019.015-.031.018-.048-.005l-1.272-1.608c-.005 0-.009-.006-.021-.021Zm.317.15c-.001.004-.006.007-.007.011l.023.029.603.762c.034.043.034.043.078.008.017-.014.021-.025.012-.045a.258.258 0 0 1 .004-.193c.01-.027.003-.041-.015-.059-.089-.086-.18-.173-.264-.262a.77.77 0 0 0-.29-.198c-.048-.021-.095-.035-.144-.053Zm1.139-.917-.008.004.003.053c.013.127.021.228.085.339.083.139.169.276.253.413.01.019.023.027.048.024a.262.262 0 0 1 .188.037c.027.017.046.011.077-.025.018-.023-.003-.033-.013-.045l-.614-.776a.078.078 0 0 0-.019-.024Zm.021 1.825a.257.257 0 0 1-.029.015c-.103.051-.205.062-.304-.006-.014-.009-.024-.01-.035.001l-.029.024c-.014.011-.015.021-.004.035.083.105.167.211.251.314.004.006.025.009.031.005a9.87 9.87 0 0 0 .224-.182c.006-.005.009-.024.006-.03l-.111-.176Zm.59-.478.147.149c.013.014.024.005.035-.004.071-.057.138-.114.21-.17.022-.018.022-.032.004-.051-.075-.093-.148-.188-.223-.282-.034-.044-.034-.044-.077-.009-.012.01-.023.019-.015.038.04.102.016.195-.042.281-.013.018-.029.033-.039.048Zm-.604-.157c.047.139.091.275.109.421.066-.005.128-.01.19-.017.009 0 .021-.014.024-.024.018-.051.031-.103.05-.155.005-.016.002-.025-.014-.032a1.6 1.6 0 0 1-.331-.178c-.01-.004-.019-.01-.028-.015Zm.36.824c.052.077.242.161.302.142l.001-.005c-.058-.072-.114-.146-.171-.216-.005-.006-.021-.006-.028-.003-.036.025-.07.054-.104.082Zm.42.051c.032-.083-.017-.288-.071-.336l-.094.076c-.018.015-.018.026-.004.043l.139.176a.42.42 0 0 0 .03.041Zm-.459-.2c.018-.015.038-.029.054-.046.006-.005.008-.025.003-.028-.057-.055-.137-.076-.206-.043-.015.007-.02.015-.012.03l.075.127c.01.015.022.014.035.004a.557.557 0 0 1 .051-.044Zm.254-.206.048-.039c.018-.012.022-.027.005-.043-.032-.031-.064-.063-.097-.093-.016-.015-.028-.012-.04.007-.04.058-.042.153 0 .209.005.005.022.007.029.004.02-.014.037-.03.055-.045Z"/><path fill="#fff" d="m139.074 144.753 4.303 5.958c-1.482 5.363-8.587 7.943-11.955 8.562l-4.294-6.136s1.104-.466 1.733-.897c.753-.516 1.713-1.591 1.713-1.591l7.04 3.029-1.945-6.915s1.306-.146 2.002-.565c.674-.406 1.403-1.445 1.403-1.445Z"/><ellipse cx="179.927" cy="224.257" fill="#fff" rx="14.761" ry="4.019" transform="matrix(.85717 -.51569 .5144 .85717 -89.657 124.817)"/><path fill="#fff" d="m161.509 224.905 28.372-17.048 6.67 11.1-28.372 17.048z"/><path fill="red" d="M235.903 329.471c-17.669-25.057-15.049-32.904-8.33-37.64 6.719-4.736 14.992-4.567 32.662 20.49 17.669 25.057 31.325 70.249 31.325 70.249-20.067-28.457-37.987-28.043-55.657-53.099Z"/><path fill="red" d="M238.316 307.065c-17.67-25.057-15.049-32.904-8.33-37.639 6.719-4.736 14.992-4.567 32.662 20.49 17.669 25.057 31.325 70.249 31.325 70.249-20.067-28.457-37.987-28.043-55.657-53.1ZM209.227 317.468c-17.67-25.057-15.049-32.903-8.33-37.639 6.719-4.736 14.992-4.567 32.661 20.49 17.67 25.057 31.326 70.249 31.326 70.249-20.067-28.457-37.988-28.043-55.657-53.1Z"/><path fill="#B7B7B7" d="m93.386 161.526 76.799-46.145 90.478 150.58-76.8 46.145z"/><ellipse cx="222.171" cy="288.88" fill="#B7B7B7" rx="44.798" ry="17.71" transform="rotate(-31 222.171 288.88)"/><path fill="url(#a)" fill-rule="evenodd" d="m166.501 109.247-76.8 46.146 90.346 150.36.04.067.04.066.053.087.001-.001c5.204 8.188 26.349 4.621 47.427-8.044 21.078-12.665 34.155-29.66 29.368-38.099l.003-.001-90.478-150.581Z" clip-rule="evenodd"/><path fill="url(#b)" d="M89.072 154.347c17.964 29.898 94.867-16.31 76.903-46.208-24.564-40.881-90.22-61.658-90.22-61.658S64.325 113.16 89.073 154.347Z"/><path fill="url(#c)" d="m133.029 313.398 37.837-22.734-51.153-85.132s-11.432 66.678 13.316 107.866Z"/><path fill="url(#d)" d="m285.605 221.721-37.836 22.734-51.152-85.131s64.24 21.21 88.988 62.397Z"/><ellipse cx="177.233" cy="219.755" fill="#EDEDED" rx="29.975" ry="37.767" transform="rotate(-31 177.233 219.755)"/><ellipse cx="177.233" cy="219.755" fill="#888" rx="25.013" ry="33.227" transform="rotate(-31 177.233 219.755)"/><ellipse cx="2.02" cy="3.174" fill="#000" rx="2.02" ry="3.174" transform="matrix(.93196 -.36476 .36366 .93068 130.972 165.802)"/><ellipse cx="2.02" cy="3.174" fill="#000" rx="2.02" ry="3.174" transform="matrix(-.76574 .6444 .64376 .76418 151.626 152.883)"/><path fill="#fff" fill-rule="evenodd" d="M137.606 152.855c-3.41 2.083-9.127 7.538-4.716 12.698 2.957 3.459 2.5 5.523 2.006 7.754-.428 1.929-.883 3.983.818 7.172 1.545 2.896 3.489 4.41 5.43 5.92 2.667 2.075 5.327 4.145 6.933 9.792 2.22 7.804 13.685 27.101 19.188 35.654l12.742-7.657 12.6-7.489c-4.883-8.922-16.068-28.135-21.863-33.814-4.083-4.002-4.009-7.25-3.935-10.489.057-2.507.115-5.008-1.756-7.847-2-3.035-4.513-3.613-6.932-4.17-2.769-.637-5.416-1.246-7.033-5.475-2.425-6.341-9.949-3.926-13.408-1.925l-.074-.124Z" clip-rule="evenodd"/><ellipse cx="4.882" cy="6.877" fill="url(#e)" rx="4.882" ry="6.877" transform="matrix(-.55845 .83018 .83 .55678 138.194 173.187)"/><ellipse cx="4.882" cy="6.877" fill="url(#f)" rx="4.882" ry="6.877" transform="matrix(-.99974 -.03453 -.03604 .999 166.74 162.627)"/><path fill="#005BBB" d="M184.032 201.834c-6.771 9.354-19.565 15.036-25.285 15.762l1.835 2.952c13.383-.87 22.311-10.917 25.266-15.786l-1.816-2.928Z"/><path fill="#FFD500" d="M185.818 204.654c-7.838 11.639-19.569 15.064-25.286 15.859l1.487 2.283c13.394-1.031 22.854-9.942 25.721-14.835l-1.922-3.307Z"/><ellipse cx=".906" cy="1.424" fill="#fff" opacity=".2" rx=".906" ry="1.424" transform="matrix(.9937 -.11697 .1156 .99274 150.417 154.461)"/><ellipse cx=".906" cy="1.424" fill="#fff" opacity=".2" rx=".906" ry="1.424" transform="matrix(.9937 -.11697 .1156 .99274 132.198 165.664)"/><path fill="#FF6B0A" d="M138.898 171c-5.524-8.389 1.908-14.756 1.936-14.629 9.659-2.724 13.329 5.156 13.688 6.432.987 3.512 7.632 3.185 7.998 7.238.366 4.053 4.293 10.614 5.777 15.937.91 3.262.37 4.971-.287 5.716.219-.128.134-.062-.076.081a1.394 1.394 0 0 1-.521.347c.195-.128.385-.254.521-.347a1.96 1.96 0 0 0 .076-.081c-.287.167-1.097.666-2.831 1.756-4.892 3.076-9.07-3.246-17.772-8.136-8.703-4.89-1.603-3.827-8.509-14.314Z"/><path fill="#000" d="M163.3 190.29c-4.179 2.014-10.694-6.026-13.429-10.298 2.122-1.989 6.967-5.886 9.372-5.572 3.006.394 9.28 13.352 4.057 15.87Z"/><path fill="#956C7C" d="M163.444 188.695c2.575-2-1.915-7.555-4.481-10.083l-5.4 3.21c2.221 3.124 7.307 8.873 9.881 6.873Z"/><path fill="#86616F" d="M161.844 186.703c.33-.751-4.083-6.265-6.331-8.929l-1.111.832c2.343 3.012 7.111 8.848 7.442 8.097Z"/><path fill="#EB6005" d="M146.268 177.605c-.707-7.295-4.15-9.525-5.782-9.729.9-7.982 7.616-7.63 10.862-6.456.149 7.458-.144 1.595 7.024 8.99 5.734 5.917 2.57 10.967.272 12.753-3.831 1.187-11.669 1.736-12.376-5.558Z"/><path fill="#EFE5D5" d="M160.42 173.084c-11.483-4.847-12.423 4.254-11.458 9.411 1.611 1.391 5.835 3.458 9.85.602 4.014-2.856 2.745-7.865 1.608-10.013Z"/><path fill="#DACAB0" d="M152.682 176.215c-.507-.693-1.564-1.904-1.74-1.201-.176.703 1.086 1.093 1.74 1.201ZM154.082 175.386c-.485-.709-1.273-2.109-.551-2.04.721.069.668 1.389.551 2.04Z"/><ellipse cx="179.927" cy="224.257" fill="#fff" rx="14.761" ry="4.019" transform="matrix(.85717 -.51569 .5144 .85717 -89.657 124.817)"/><path fill="url(#g)" d="M161.509 224.905h33.1v12.95h-33.1z" transform="rotate(-31 161.509 224.905)"/><defs><linearGradient id="a" x1="116.62" x2="242.919" y1="195.049" y2="160.373" gradientUnits="userSpaceOnUse"><stop stop-color="#C8C8C8"/><stop offset="1" stop-color="#fff"/></linearGradient><linearGradient id="b" x1="88.811" x2="161.672" y1="148.763" y2="47.15" gradientUnits="userSpaceOnUse"><stop stop-color="#C8C8C8"/><stop offset="1" stop-color="#fff"/></linearGradient><linearGradient id="c" x1="121.478" x2="166.413" y1="291.639" y2="245.064" gradientUnits="userSpaceOnUse"><stop stop-color="#C8C8C8"/><stop offset="1" stop-color="#fff"/></linearGradient><linearGradient id="d" x1="271.816" x2="209.597" y1="201.306" y2="219.116" gradientUnits="userSpaceOnUse"><stop stop-color="#C8C8C8"/><stop offset="1" stop-color="#fff"/></linearGradient><linearGradient id="g" x1="178.059" x2="178.059" y1="224.905" y2="237.855" gradientUnits="userSpaceOnUse"><stop stop-color="#888" stop-opacity="0"/><stop offset="1" stop-color="#888"/></linearGradient><radialGradient id="e" cx="0" cy="0" r="1" gradientTransform="matrix(0 6.87666 -4.88203 0 4.882 6.877)" gradientUnits="userSpaceOnUse"><stop stop-color="#FBB"/><stop offset="1" stop-color="#FBB" stop-opacity="0"/></radialGradient><radialGradient id="f" cx="0" cy="0" r="1" gradientTransform="matrix(0 6.87666 -4.88203 0 4.882 6.877)" gradientUnits="userSpaceOnUse"><stop stop-color="#FBB"/><stop offset="1" stop-color="#FBB" stop-opacity="0"/></radialGradient></defs></svg>