<svg width="40" height="39" viewBox="0 0 40 39" fill="none" xmlns="http://www.w3.org/2000/svg">
<path d="M39.2973 35.75C36.4416 30.8131 32.041 27.2731 26.9054 25.595C29.4457 24.0827 31.4194 21.7784 32.5233 19.0359C33.6272 16.2933 33.8004 13.2643 33.0161 10.4138C32.2319 7.56334 30.5337 5.04912 28.1822 3.25724C25.8308 1.46536 22.9561 0.494904 19.9998 0.494904C17.0434 0.494904 14.1688 1.46536 11.8173 3.25724C9.46588 5.04912 7.76764 7.56334 6.98341 10.4138C6.19919 13.2643 6.37233 16.2933 7.47625 19.0359C8.58017 21.7784 10.5538 24.0827 13.0942 25.595C7.95853 27.2713 3.5579 30.8113 0.702275 35.75C0.597554 35.9208 0.528094 36.1108 0.497992 36.3088C0.46789 36.5068 0.477756 36.7089 0.527008 36.903C0.576261 37.0972 0.663902 37.2795 0.78476 37.4393C0.905618 37.599 1.05725 37.7329 1.2307 37.8331C1.40415 37.9333 1.59591 37.9977 1.79466 38.0226C1.99342 38.0475 2.19515 38.0323 2.38794 37.9779C2.58073 37.9236 2.76069 37.8312 2.91719 37.7062C3.07369 37.5811 3.20356 37.426 3.29915 37.25C6.83165 31.145 13.0754 27.5 19.9998 27.5C26.9242 27.5 33.1679 31.145 36.7004 37.25C36.796 37.426 36.9259 37.5811 37.0824 37.7062C37.2389 37.8312 37.4188 37.9236 37.6116 37.9779C37.8044 38.0323 38.0061 38.0475 38.2049 38.0226C38.4036 37.9977 38.5954 37.9333 38.7689 37.8331C38.9423 37.7329 39.0939 37.599 39.2148 37.4393C39.3356 37.2795 39.4233 37.0972 39.4725 36.903C39.5218 36.7089 39.5317 36.5068 39.5016 36.3088C39.4715 36.1108 39.402 35.9208 39.2973 35.75ZM9.49978 14C9.49978 11.9233 10.1156 9.89323 11.2693 8.16652C12.4231 6.4398 14.063 5.09399 15.9816 4.29927C17.9002 3.50455 20.0114 3.29661 22.0482 3.70176C24.085 4.1069 25.9559 5.10693 27.4244 6.57538C28.8928 8.04383 29.8929 9.91476 30.298 11.9516C30.7032 13.9884 30.4952 16.0996 29.7005 18.0182C28.9058 19.9368 27.56 21.5767 25.8333 22.7304C24.1065 23.8842 22.0765 24.5 19.9998 24.5C17.2159 24.497 14.5469 23.3898 12.5784 21.4213C10.61 19.4528 9.50275 16.7839 9.49978 14Z" fill="#3E85F3" fill-opacity="0.18"/>
</svg>



